<svg width="137" height="36" viewBox="0 0 137 36" fill="none" xmlns="http://www.w3.org/2000/svg">
<path d="M0 10C0 4.47715 4.47715 0 10 0H26C31.5228 0 36 4.47715 36 10V26C36 31.5228 31.5228 36 26 36H10C4.47715 36 0 31.5228 0 26V10Z" fill="url(#paint0_linear_35_2)"/>
<path fill-rule="evenodd" clip-rule="evenodd" d="M20.8504 25.0228C20.8504 25.7649 21.8128 26.0563 22.2244 25.4388L27.673 17.2659C28.0053 16.7675 27.648 16.0999 27.049 16.0999H22.7504V10.977C22.7504 10.2349 21.788 9.94351 21.3764 10.561L15.9277 18.7339C15.5955 19.2323 15.9528 19.8999 16.5518 19.8999H20.8504V25.0228Z" fill="white"/>
<path opacity="0.3" fill-rule="evenodd" clip-rule="evenodd" d="M9.44883 12.7746C9.44883 11.9876 10.0868 11.3496 10.8738 11.3496H15.6238C16.4108 11.3496 17.0488 11.9876 17.0488 12.7746C17.0488 13.5616 16.4108 14.1996 15.6238 14.1996H10.8738C10.0868 14.1996 9.44883 13.5616 9.44883 12.7746ZM9.44883 24.1746C9.44883 23.3876 10.0868 22.7496 10.8738 22.7496H15.6238C16.4108 22.7496 17.0488 23.3876 17.0488 24.1746C17.0488 24.9616 16.4108 25.5996 15.6238 25.5996H10.8738C10.0868 25.5996 9.44883 24.9616 9.44883 24.1746ZM8.97383 17.0496C8.18682 17.0496 7.54883 17.6876 7.54883 18.4746C7.54883 19.2616 8.18682 19.8996 8.97383 19.8996H12.7738C13.5608 19.8996 14.1988 19.2616 14.1988 18.4746C14.1988 17.6876 13.5608 17.0496 12.7738 17.0496H8.97383Z" fill="white"/>
<path d="M47.8438 28.5V22.0312H47.7813C47.6146 22.4375 47.375 22.8021 47.0625 23.125C46.7552 23.4427 46.3802 23.6953 45.9375 23.8828C45.5 24.0651 45 24.1563 44.4375 24.1563C43.5833 24.1563 42.7969 23.9323 42.0781 23.4844C41.3646 23.0365 40.7917 22.3568 40.3594 21.4453C39.9323 20.5339 39.7188 19.3854 39.7188 18C39.7188 16.5521 39.9427 15.375 40.3906 14.4687C40.8438 13.5625 41.4271 12.8984 42.1406 12.4766C42.8594 12.0547 43.6146 11.8438 44.4063 11.8438C45 11.8438 45.5208 11.9479 45.9688 12.1562C46.4167 12.3594 46.7917 12.6328 47.0938 12.9766C47.3958 13.3151 47.625 13.6875 47.7813 14.0937H47.875V12H52.1563V28.5H47.8438ZM46.0313 20.8438C46.4271 20.8438 46.7656 20.7292 47.0469 20.5C47.3333 20.2656 47.5521 19.9375 47.7031 19.5156C47.8594 19.0885 47.9375 18.5833 47.9375 18C47.9375 17.4062 47.8594 16.8984 47.7031 16.4766C47.5521 16.0495 47.3333 15.724 47.0469 15.5C46.7656 15.2708 46.4271 15.1562 46.0313 15.1562C45.6354 15.1562 45.2969 15.2708 45.0156 15.5C44.7396 15.724 44.526 16.0495 44.375 16.4766C44.2292 16.8984 44.1562 17.4062 44.1562 18C44.1562 18.5937 44.2292 19.1042 44.375 19.5312C44.526 19.9531 44.7396 20.2786 45.0156 20.5078C45.2969 20.7318 45.6354 20.8438 46.0313 20.8438ZM54.2754 24V8H61.1816C62.3691 8 63.4082 8.23437 64.2988 8.70312C65.1895 9.17187 65.8822 9.83073 66.377 10.6797C66.8717 11.5286 67.1191 12.5208 67.1191 13.6562C67.1191 14.8021 66.8639 15.7943 66.3535 16.6328C65.8483 17.4714 65.1374 18.1172 64.2207 18.5703C63.3092 19.0234 62.2441 19.25 61.0254 19.25H56.9004V15.875H60.1504C60.6608 15.875 61.0957 15.7865 61.4551 15.6094C61.8197 15.4271 62.0983 15.1693 62.291 14.8359C62.4889 14.5026 62.5879 14.1094 62.5879 13.6562C62.5879 13.1979 62.4889 12.8073 62.291 12.4844C62.0983 12.1562 61.8197 11.9062 61.4551 11.7344C61.0957 11.5573 60.6608 11.4687 60.1504 11.4687H58.6191V24H54.2754ZM71.582 24.1875C70.8164 24.1875 70.1393 24.0625 69.5508 23.8125C68.9674 23.5573 68.5091 23.1719 68.1758 22.6562C67.8424 22.1406 67.6758 21.4844 67.6758 20.6875C67.6758 20.0312 67.7878 19.4714 68.0117 19.0078C68.2357 18.5391 68.5482 18.1562 68.9492 17.8594C69.3503 17.5625 69.8164 17.3359 70.3477 17.1797C70.8841 17.0234 71.4622 16.9219 72.082 16.875C72.7539 16.8229 73.293 16.7604 73.6992 16.6875C74.1107 16.6094 74.4076 16.5026 74.5898 16.3672C74.7721 16.2266 74.8633 16.0417 74.8633 15.8125V15.7812C74.8633 15.4687 74.7435 15.2292 74.5039 15.0625C74.2643 14.8958 73.957 14.8125 73.582 14.8125C73.1706 14.8125 72.8346 14.9036 72.5742 15.0859C72.319 15.263 72.1654 15.5365 72.1133 15.9062H68.1445C68.1966 15.1771 68.4284 14.5052 68.8398 13.8906C69.2565 13.2708 69.8633 12.776 70.6602 12.4063C71.457 12.0313 72.4518 11.8438 73.6445 11.8438C74.5039 11.8438 75.2747 11.9453 75.957 12.1484C76.6393 12.3464 77.2201 12.625 77.6992 12.9844C78.1784 13.3385 78.543 13.7552 78.793 14.2344C79.0482 14.7083 79.1758 15.224 79.1758 15.7812V24H75.1445V22.3125H75.0508C74.8112 22.7604 74.5195 23.1224 74.1758 23.3984C73.8372 23.6745 73.4492 23.875 73.0117 24C72.5794 24.125 72.1029 24.1875 71.582 24.1875ZM72.9883 21.4687C73.3164 21.4687 73.6237 21.401 73.9102 21.2656C74.2018 21.1302 74.4388 20.9349 74.6211 20.6797C74.8034 20.4245 74.8945 20.1146 74.8945 19.75V18.75C74.7799 18.7969 74.6576 18.8411 74.5273 18.8828C74.4023 18.9245 74.2669 18.9635 74.1211 19C73.9805 19.0365 73.8294 19.0703 73.668 19.1016C73.5117 19.1328 73.3477 19.1615 73.1758 19.1875C72.8424 19.2396 72.569 19.3255 72.3555 19.4453C72.1471 19.5599 71.9909 19.7031 71.8867 19.875C71.7878 20.0417 71.7383 20.2292 71.7383 20.4375C71.7383 20.7708 71.8555 21.026 72.0898 21.2031C72.3242 21.3802 72.6237 21.4687 72.9883 21.4687ZM81.2363 24V12H85.4238V14.2812H85.5488C85.7676 13.4375 86.1139 12.8203 86.5879 12.4297C87.0671 12.0391 87.627 11.8438 88.2676 11.8438C88.4551 11.8438 88.64 11.8594 88.8223 11.8906C89.0098 11.9167 89.1895 11.9557 89.3613 12.0078V15.6875C89.1478 15.6146 88.8848 15.5599 88.5723 15.5234C88.2598 15.487 87.9915 15.4687 87.7676 15.4687C87.3457 15.4687 86.9655 15.5651 86.627 15.7578C86.2936 15.9453 86.0306 16.2109 85.8379 16.5547C85.6452 16.8932 85.5488 17.2917 85.5488 17.75V24H81.2363ZM94.6504 21.1562L94.6816 16.0313H95.2441L98.1504 12H102.994L98.1191 18.2812H96.9004L94.6504 21.1562ZM90.7754 24V8H95.0879V24H90.7754ZM98.1816 24L95.4316 19.25L98.2441 16.1875L103.119 24H98.1816Z" fill="url(#paint1_linear_35_2)"/>
<defs>
<linearGradient id="paint0_linear_35_2" x1="36" y1="0" x2="0" y2="36" gradientUnits="userSpaceOnUse">
<stop stop-color="#D665FF"/>
<stop offset="1" stop-color="#4C6FFF"/>
</linearGradient>
<linearGradient id="paint1_linear_35_2" x1="79.8571" y1="8.3" x2="71.0492" y2="29.2013" gradientUnits="userSpaceOnUse">
<stop offset="0.0240763" stop-color="#D665FF"/>
<stop offset="0.778245" stop-color="#4C6FFF"/>
</linearGradient>
</defs>
</svg>
