<svg width="497" height="184" viewBox="0 0 497 184" fill="none" xmlns="http://www.w3.org/2000/svg">
<path d="M252.738 149.659V120.177H252.271C251.554 121.707 250.538 123.225 249.223 124.732C247.932 126.214 246.246 127.446 244.166 128.426C242.109 129.406 239.599 129.897 236.634 129.897C232.449 129.897 228.659 128.821 225.264 126.669C221.892 124.493 219.214 121.301 217.23 117.092C215.269 112.86 214.289 107.671 214.289 101.526C214.289 95.2138 215.305 89.9653 217.337 85.7809C219.37 81.5726 222.072 78.4283 225.443 76.348C228.839 74.2438 232.557 73.1918 236.598 73.1918C239.682 73.1918 242.253 73.7178 244.309 74.7699C246.389 75.7981 248.063 77.0893 249.33 78.6435C250.621 80.1738 251.602 81.6802 252.271 83.1626H252.917V73.9091H267.981V149.659H252.738ZM241.476 117.738C243.938 117.738 246.019 117.068 247.716 115.729C249.438 114.366 250.753 112.466 251.662 110.027C252.594 107.588 253.06 104.73 253.06 101.455C253.06 98.1787 252.606 95.3333 251.697 92.9183C250.789 90.5033 249.474 88.6383 247.752 87.3232C246.031 86.008 243.938 85.3505 241.476 85.3505C238.965 85.3505 236.849 86.032 235.127 87.3949C233.406 88.7578 232.102 90.6468 231.218 93.0618C230.333 95.4768 229.891 98.2744 229.891 101.455C229.891 104.659 230.333 107.492 231.218 109.955C232.126 112.394 233.429 114.307 235.127 115.694C236.849 117.056 238.965 117.738 241.476 117.738ZM280.534 129V55.5455H309.514C315.086 55.5455 319.832 56.6095 323.753 58.7376C327.675 60.8417 330.664 63.7708 332.72 67.5249C334.8 71.255 335.84 75.5589 335.84 80.4368C335.84 85.3146 334.788 89.6186 332.684 93.3487C330.58 97.0788 327.531 99.984 323.538 102.064C319.569 104.145 314.763 105.185 309.12 105.185H290.648V92.739H306.609C309.598 92.739 312.061 92.2249 313.998 91.1967C315.958 90.1446 317.417 88.698 318.373 86.8569C319.354 84.9918 319.844 82.8518 319.844 80.4368C319.844 77.9979 319.354 75.8698 318.373 74.0526C317.417 72.2114 315.958 70.7887 313.998 69.7844C312.037 68.7563 309.55 68.2422 306.537 68.2422H296.064V129H280.534ZM359.871 130.04C356.356 130.04 353.224 129.43 350.474 128.211C347.724 126.968 345.548 125.138 343.946 122.723C342.368 120.284 341.579 117.248 341.579 113.613C341.579 110.553 342.141 107.982 343.265 105.902C344.388 103.822 345.919 102.148 347.856 100.881C349.792 99.6134 351.992 98.657 354.455 98.0114C356.942 97.3658 359.548 96.9115 362.274 96.6484C365.478 96.3137 368.06 96.0028 370.021 95.7159C371.982 95.4051 373.404 94.9508 374.289 94.353C375.174 93.7552 375.616 92.8705 375.616 91.6989V91.4837C375.616 89.2121 374.899 87.4547 373.464 86.2113C372.053 84.9679 370.045 84.3462 367.439 84.3462C364.689 84.3462 362.501 84.956 360.875 86.1754C359.249 87.371 358.173 88.8774 357.647 90.6946L343.516 89.5469C344.233 86.1993 345.644 83.3061 347.748 80.8672C349.852 78.4044 352.566 76.5154 355.89 75.2003C359.237 73.8613 363.111 73.1918 367.51 73.1918C370.571 73.1918 373.5 73.5504 376.298 74.2678C379.119 74.9851 381.618 76.0969 383.794 77.6033C385.994 79.1097 387.727 81.0465 388.994 83.4137C390.262 85.757 390.895 88.5665 390.895 91.8423V129H376.405V121.36H375.975C375.09 123.082 373.907 124.6 372.424 125.915C370.942 127.207 369.16 128.223 367.08 128.964C365 129.681 362.597 130.04 359.871 130.04ZM364.246 119.495C366.494 119.495 368.479 119.053 370.2 118.168C371.922 117.26 373.273 116.04 374.253 114.51C375.234 112.98 375.724 111.246 375.724 109.309V103.463C375.246 103.774 374.588 104.061 373.751 104.324C372.938 104.563 372.018 104.79 370.989 105.005C369.961 105.197 368.933 105.376 367.905 105.543C366.877 105.687 365.944 105.818 365.107 105.938C363.314 106.201 361.748 106.619 360.409 107.193C359.07 107.767 358.03 108.544 357.288 109.525C356.547 110.481 356.177 111.676 356.177 113.111C356.177 115.191 356.93 116.781 358.436 117.881C359.966 118.957 361.903 119.495 364.246 119.495ZM402.749 129V73.9091H417.562V83.5213H418.136C419.14 80.102 420.826 77.5196 423.193 75.7741C425.56 74.0047 428.286 73.12 431.371 73.12C432.136 73.12 432.961 73.1678 433.845 73.2635C434.73 73.3591 435.507 73.4906 436.177 73.658V87.2156C435.459 87.0004 434.467 86.8091 433.2 86.6417C431.933 86.4743 430.773 86.3906 429.721 86.3906C427.473 86.3906 425.465 86.8808 423.695 87.8612C421.95 88.8176 420.563 90.1566 419.535 91.8782C418.53 93.5998 418.028 95.5844 418.028 97.832V129H402.749ZM457.921 113.147L457.957 94.8192H460.18L477.827 73.9091H495.365L471.658 101.598H468.035L457.921 113.147ZM444.076 129V55.5455H459.355V129H444.076ZM478.508 129L462.296 105.005L472.483 94.2095L496.405 129H478.508Z" fill="#0C1156"/>
<rect x="0.5" y="0.5" width="183" height="183" rx="39.5" fill="#F8F6F9" stroke="#ECEEEE"/>
<path d="M84.6648 106.636H101.392L109.801 117.455L118.074 127.091L133.665 146.636H115.301L104.574 133.455L99.0739 125.636L84.6648 106.636ZM135.074 92.4545C135.074 102.606 133.15 111.242 129.301 118.364C125.483 125.485 120.271 130.924 113.665 134.682C107.089 138.409 99.6951 140.273 91.483 140.273C83.2102 140.273 75.786 138.394 69.2102 134.636C62.6345 130.879 57.4375 125.439 53.6193 118.318C49.8011 111.197 47.892 102.576 47.892 92.4545C47.892 82.303 49.8011 73.6667 53.6193 66.5455C57.4375 59.4242 62.6345 54 69.2102 50.2727C75.786 46.5151 83.2102 44.6364 91.483 44.6364C99.6951 44.6364 107.089 46.5151 113.665 50.2727C120.271 54 125.483 59.4242 129.301 66.5455C133.15 73.6667 135.074 82.303 135.074 92.4545ZM115.119 92.4545C115.119 85.8788 114.134 80.3333 112.165 75.8182C110.225 71.303 107.483 67.8788 103.938 65.5455C100.392 63.2121 96.2405 62.0455 91.483 62.0455C86.7254 62.0455 82.5739 63.2121 79.0284 65.5455C75.483 67.8788 72.7254 71.303 70.7557 75.8182C68.8163 80.3333 67.8466 85.8788 67.8466 92.4545C67.8466 99.0303 68.8163 104.576 70.7557 109.091C72.7254 113.606 75.483 117.03 79.0284 119.364C82.5739 121.697 86.7254 122.864 91.483 122.864C96.2405 122.864 100.392 121.697 103.938 119.364C107.483 117.03 110.225 113.606 112.165 109.091C114.134 104.576 115.119 99.0303 115.119 92.4545Z" fill="#4B2AF4"/>
</svg>
